<svg xmlns="http://www.w3.org/2000/svg" viewBox="0 0 500 500"><g id="freepik--Character--inject-10"><path d="M286,241.81c-7.12,4.06-11.22,12.31-11.63,20.5-.33,6.47,1.3,13.38-1.61,19.17-.74,1.48-1.79,3-1.49,4.62a3.7,3.7,0,0,0,3.79,2.73,6.16,6.16,0,0,0,4.33-2.37,5.53,5.53,0,0,0,10.86-.07c1.42,2.67,5.9,1.91,7.41-.71s.8-5.48.8-8.5c0-4.05-1.94-8.27-3-11.5-1.61-4.83-1.16-16,10-13l2.88-7.36C303.24,238.9,293.14,237.76,286,241.81Z" style="fill:#263238"></path><path d="M306.89,240.91a4.74,4.74,0,0,0-4.29,1.14,10,10,0,0,0-2.53,3.83,23,23,0,0,0-1.5,5.4,3.42,3.42,0,0,0,.21,2.24c.55,1,1.82,1.23,2.93,1.38l.32-.58a18.63,18.63,0,0,1,5.08-8.28c.8-.74,1.73-1.55,1.81-2.64A2.65,2.65,0,0,0,306.89,240.91Z" style="fill:#FF725E"></path><path d="M368.26,241c7.35,3.62,11.93,11.62,12.82,19.77.71,6.44-.51,13.43,2.73,19,.83,1.43,2,2.89,1.77,4.53a3.72,3.72,0,0,1-3.62,2.95,6.22,6.22,0,0,1-4.47-2.11,5.53,5.53,0,0,1-10.84.57c-1.26,2.75-5.77,2.26-7.44-.27s-1.21-5.87-.3-8.76S361.14,271,361,268c-.23-5.08-.56-18.58-11.49-14.94l-3.3-7.18C350.9,239.13,360.91,237.39,368.26,241Z" style="fill:#263238"></path><path d="M320.94,236.64a27.76,27.76,0,0,0-18.69,16.44,31.57,31.57,0,0,0,1,25.09,36.68,36.68,0,0,0,18.3,17.48c3,1.33,6.9,2.16,9.36,0a9.85,9.85,0,0,0,2.29-4.11q7.84-21.89,15.71-43.75Z" style="fill:#263238"></path><path d="M377.28,249.12c-.5-2.44-2.86-4.14-5.29-4.64a19.05,19.05,0,0,0-7.39.43c.75-3.23,1.5-6.56.94-9.83s-2.8-6.47-6.05-7.12c-2.8-.56-5.62.85-7.89,2.58s-4.31,3.83-6.91,5c-6.74,3.1-14.73-.89-22,.51-7.48,1.44-13.84,10-12.82,17.51,12.2,4.73,24.51,9.52,35.37,16.82,5.87,3.95,12.17,8.86,19.16,7.78a12.27,12.27,0,0,0,7.27-20.32C374.65,255.72,378,252.72,377.28,249.12Z" style="fill:#263238"></path><path d="M365,266.05c-.69-9.86-11.39-19.64-21.21-18.54l-31.85,6.28.14,5.31,2.41,65.72h0s2.88,21.19,20.77,19.86c16.06-1.2,15.07-18.17,15.07-18.18l-.58-12.39s13-.61,15.48-17.07C366.48,288.85,365.76,277,365,266.05Z" style="fill:#ffbe9d"></path><path d="M358.45,280.36a2.13,2.13,0,0,1-2,2.15,2,2,0,0,1-2.19-1.89,2.12,2.12,0,0,1,2-2.15A2,2,0,0,1,358.45,280.36Z" style="fill:#263238"></path><path d="M362.16,274.82c-.26.28-1.87-.89-4.14-.87s-3.92,1.17-4.17.89c-.12-.12.14-.62.86-1.15a5.85,5.85,0,0,1,3.34-1.06,5.54,5.54,0,0,1,3.29,1C362.05,274.2,362.29,274.7,362.16,274.82Z" style="fill:#263238"></path><path d="M339.22,280.36a2.1,2.1,0,0,1-2,2.14,2,2,0,0,1-2.18-1.88,2.1,2.1,0,0,1,2-2.15A2,2,0,0,1,339.22,280.36Z" style="fill:#263238"></path><path d="M341.27,275.32c-.26.27-1.87-.9-4.13-.88s-3.93,1.17-4.18.9.14-.62.87-1.16a5.75,5.75,0,0,1,3.34-1.05,5.56,5.56,0,0,1,3.29,1C341.16,274.7,341.4,275.19,341.27,275.32Z" style="fill:#263238"></path><path d="M348.14,290.3a19.38,19.38,0,0,1,3.68-.58c.58-.05,1.13-.15,1.23-.46s-.1-.8-.37-1.31c-.54-1.08-1.1-2.2-1.7-3.38a91.42,91.42,0,0,1-3.78-8.82c.25-.08,2.36,3.75,4.71,8.55l1.61,3.39a2,2,0,0,1,.29,1.75,1.39,1.39,0,0,1-.95.67,5.63,5.63,0,0,1-1,.12A18.57,18.57,0,0,1,348.14,290.3Z" style="fill:#263238"></path><path d="M349.86,314.21a41.92,41.92,0,0,1-22.07-5.73s5.7,11.45,22.15,9.8Z" style="fill:#eb996e"></path><path d="M340.47,267.75c-.26.7-2.21.19-4.58.37s-4.32.87-4.58.2c-.11-.32.28-1,1.1-1.61a6.52,6.52,0,0,1,3.48-1.28,5.92,5.92,0,0,1,3.49.85C340.2,266.81,340.58,267.41,340.47,267.75Z" style="fill:#263238"></path><path d="M362.18,267c-.37.64-2.06.14-4,.27s-3.6.7-4,.1c-.2-.3,0-.93.7-1.56a5.05,5.05,0,0,1,3.19-1.26,5.2,5.2,0,0,1,3.31,1C362.06,266.1,362.34,266.71,362.18,267Z" style="fill:#263238"></path><path d="M363.52,256.74c-3-5.61-8.67-9.5-14.8-11.2s-12.67-1.38-18.88,0a118.33,118.33,0,0,0-18.08,6c-1.43.57-3,1.24-3.67,2.63a6.28,6.28,0,0,0-.35,3.08q.72,13.22,1.43,26.42l2.37,5.41c2.86,0,5.27-2.06,7.13-4.22A39.36,39.36,0,0,0,328,257.23a13,13,0,0,1,1.57,3.82,4.37,4.37,0,0,0,2.61,3c2.23.61,4.11-1.92,4.45-4.21s0-4.77,1.09-6.79a26.44,26.44,0,0,0,8.74,8c1.63.92,3.8,1.63,5.27.46a3.57,3.57,0,0,0,1-3.64,10.46,10.46,0,0,0-1.89-3.48A20.71,20.71,0,0,0,361,260.49a2.86,2.86,0,0,0,2.53-.21C364.54,259.46,364.12,257.87,363.52,256.74Z" style="fill:#263238"></path><path d="M315.64,277.6c-.26-.11-10.14-2.85-9.68,7.19s10.44,7.51,10.45,7.22S315.64,277.6,315.64,277.6Z" style="fill:#ffbe9d"></path><path d="M313.17,288.35c-.05,0-.17.13-.46.28a1.8,1.8,0,0,1-1.31.08c-1.08-.34-2-2-2.18-3.79a5.87,5.87,0,0,1,.38-2.52,2,2,0,0,1,1.25-1.41.91.91,0,0,1,1.06.44c.14.27.09.47.14.49s.21-.18.11-.59a1.11,1.11,0,0,0-.42-.61,1.29,1.29,0,0,0-1-.21,2.47,2.47,0,0,0-1.76,1.64,6,6,0,0,0-.48,2.82c.16,2,1.28,3.87,2.75,4.22a1.88,1.88,0,0,0,1.59-.34C313.16,288.59,313.2,288.36,313.17,288.35Z" style="fill:#eb996e"></path><path d="M341.48,292.13a9,9,0,0,0-.88,4.56,3.78,3.78,0,0,0,2.22,3,4.22,4.22,0,0,0,4-.78,12.16,12.16,0,0,0,2.7-3.22C347,294.54,343.94,293.25,341.48,292.13Z" style="fill:#eb996e"></path><path d="M345.66,300.25a3.78,3.78,0,0,1-3-.47,5,5,0,0,1-2.27-2.46,5.33,5.33,0,0,1,.08-4.09,4.85,4.85,0,0,1,1-1.47l.14-.15.2.07a35.12,35.12,0,0,1,5.53,2.56,7.8,7.8,0,0,1,2,1.39c-.1.15-3.25-1.76-7.78-3.35l.34-.08a4.42,4.42,0,0,0-.84,1.29,4.6,4.6,0,0,0,1.82,5.9A7.61,7.61,0,0,0,345.66,300.25Z" style="fill:#263238"></path><path d="M305,248.15a11,11,0,0,1-.69,1.29,30.34,30.34,0,0,0-3.86,16.39,35.59,35.59,0,0,0,3.08,12.66,27.24,27.24,0,0,0,1.89,3.49,9.07,9.07,0,0,1,.78,1.24s-.1-.09-.27-.28-.41-.46-.68-.85a22.31,22.31,0,0,1-2.06-3.45,33.9,33.9,0,0,1-3.26-12.78,29.19,29.19,0,0,1,2.32-13,24.12,24.12,0,0,1,1.88-3.55c.25-.4.48-.69.62-.9S305,248.14,305,248.15Z" style="fill:#455a64"></path><path d="M365.38,234.34a.48.48,0,0,1,.08.17,2.67,2.67,0,0,1,.17.54,10.15,10.15,0,0,1,.18,2.14,42.18,42.18,0,0,1-1,7.76l-.25-.23a14.59,14.59,0,0,1,9.22-.06,6.51,6.51,0,0,1,2.31,1.43,5.16,5.16,0,0,1,1.41,2.45,6.27,6.27,0,0,1,0,2.92,7.9,7.9,0,0,1-1.28,2.68,10.61,10.61,0,0,1-2,2.25c-.77.62-1.59,1.13-2.36,1.67l0-.39a10.24,10.24,0,0,1,2.57,4.59,14.37,14.37,0,0,1,.44,4.82,14.71,14.71,0,0,1-.91,4.24,9.92,9.92,0,0,1-2,3.17,10.46,10.46,0,0,1-4.5,2.79,9.84,9.84,0,0,1-1.38.36,1.52,1.52,0,0,1-.49.06s.66-.16,1.81-.59a10.66,10.66,0,0,0,4.32-2.85,9.67,9.67,0,0,0,1.86-3.09,14.55,14.55,0,0,0,.83-4.12,14.17,14.17,0,0,0-.45-4.66,9.91,9.91,0,0,0-2.47-4.36l-.21-.22.25-.17c.77-.55,1.59-1.05,2.32-1.66a9.6,9.6,0,0,0,1.93-2.13,7.44,7.44,0,0,0,1.2-2.51,5.61,5.61,0,0,0,0-2.67,5.17,5.17,0,0,0-3.39-3.55,14.39,14.39,0,0,0-8.93,0l-.33.1.08-.33a47.35,47.35,0,0,0,1.18-7.68,11.48,11.48,0,0,0-.08-2.11C365.44,234.59,365.35,234.35,365.38,234.34Z" style="fill:#455a64"></path><path d="M296.22,382.58s-4.78,18.33-6.19,29.65c-1.11,8.89-.56,31.17,11.38,40.34s31.9,7.74,40,5.82c9.61-2.27,74.22-27.18,74.22-27.18l-46.74-32.75Z" style="fill:#263238"></path><path d="M399.42,361.52s-18-30-23.33-35.6a33.85,33.85,0,0,0-7.35-5.85l-7.82,41.85s19.35,25,30.24,23.4C405.26,383.19,399.42,361.52,399.42,361.52Z" style="fill:#455a64"></path><path d="M351.57,315.57l17.17,4.5-4.69,64.19,8.55,16.81S322.51,422.84,299.9,423c-3.65,0-8.93,1.88-10.7.7-1.65-20.72,2-24.34,6.53-34.17l1.41-42.64L298.58,319l15.71-5.49C325.59,327.4,344.67,334.47,351.57,315.57Z" style="fill:#455a64"></path><path d="M301.72,317.91s-15.24,2.13-18.91,22.45c-2.45,13.61-5.51,30-5.5,43.9,0,3.83,2.18,9.25,4,10.87,2.1,1.85,36.46,21.69,36.46,21.69l22-11.62-35.57-24.87,3-33.44Z" style="fill:#455a64"></path><path d="M340.7,407a4.73,4.73,0,0,1-.66-.42l-1.83-1.29-6.67-4.82-21.89-16.06-5.52-4.08-.11-.08v-.13c.4-8.93.74-16.79,1-22.47.14-2.78.26-5,.34-6.63,0-.73.09-1.32.12-1.78a2.7,2.7,0,0,1,.07-.61,2.93,2.93,0,0,1,0,.62c0,.45,0,1,0,1.78,0,1.61-.1,3.85-.18,6.63-.21,5.69-.49,13.54-.81,22.48l-.11-.22L310,384l21.8,16.17,6.57,5,1.77,1.36A5.37,5.37,0,0,1,340.7,407Z" style="fill:#263238"></path><path d="M317.8,416.59c-.07.13-8.14-4.38-18-10.06S281.93,396.13,282,396s8.15,4.38,18,10.06S317.87,416.47,317.8,416.59Z" style="fill:#263238"></path><path d="M305.54,340.15c-.11,0-.08-1.21-.69-3a16.76,16.76,0,0,0-4-6.24,16.26,16.26,0,0,0-6.17-4.08,12.47,12.47,0,0,0-3-.51,3,3,0,0,1,.84-.14,7.49,7.49,0,0,1,2.31.29,15.19,15.19,0,0,1,6.43,4.08,15.47,15.47,0,0,1,4,6.49,8.39,8.39,0,0,1,.29,1.3,4.7,4.7,0,0,1,.09,1A2.47,2.47,0,0,1,305.54,340.15Z" style="fill:#263238"></path><path d="M365.84,359.55a3.58,3.58,0,0,1,0,1c0,.62-.05,1.53-.11,2.65-.11,2.24-.31,5.33-.55,8.74s-.5,6.5-.71,8.73c-.1,1.12-.2,2-.27,2.64a3.34,3.34,0,0,1-.18,1,4.24,4.24,0,0,1,0-1c0-.63.05-1.54.11-2.65.12-2.24.31-5.34.56-8.75s.5-6.5.7-8.73c.11-1.12.2-2,.28-2.64A3.06,3.06,0,0,1,365.84,359.55Z" style="fill:#263238"></path><path d="M398.24,359.81c-.06.06-1.07-1-2.84-2.63a93,93,0,0,0-7.21-5.91c-2.92-2.17-5.67-4-7.72-5.23s-3.37-1.89-3.33-2a4.52,4.52,0,0,1,1,.36c.61.28,1.49.7,2.54,1.28a74.68,74.68,0,0,1,7.85,5.13,72.58,72.58,0,0,1,7.15,6.06c.86.84,1.51,1.56,1.95,2.07A4,4,0,0,1,398.24,359.81Z" style="fill:#263238"></path><path d="M291.65,382.26s.43-.68,1.46-1.45a10.6,10.6,0,0,1,4.57-1.93,10.09,10.09,0,0,1,5,.24,4.35,4.35,0,0,1,1.78,1c0,.08-.72-.34-1.9-.68a11.1,11.1,0,0,0-4.76-.07,11.91,11.91,0,0,0-4.46,1.71C292.27,381.78,291.71,382.32,291.65,382.26Z" style="fill:#263238"></path><path d="M304.9,366.73c0,.09-1.43-.47-3.75-1.13a43.79,43.79,0,0,0-9.27-1.56,44.44,44.44,0,0,0-9.39.5c-2.39.39-3.84.79-3.86.71a3.56,3.56,0,0,1,1-.37,26.76,26.76,0,0,1,2.8-.7,37.73,37.73,0,0,1,18.83,1.07,23.8,23.8,0,0,1,2.7,1A4.21,4.21,0,0,1,304.9,366.73Z" style="fill:#fff"></path><path d="M305.91,347.73c-.05.08-1.22-.67-3.24-1.62a33.44,33.44,0,0,0-16.95-3.1c-2.23.18-3.59.47-3.61.38a4.23,4.23,0,0,1,.94-.28,21.54,21.54,0,0,1,2.64-.46,29.87,29.87,0,0,1,8.8.29,29.45,29.45,0,0,1,8.34,2.84,22.51,22.51,0,0,1,2.31,1.35A3.42,3.42,0,0,1,305.91,347.73Z" style="fill:#fff"></path><path d="M308.57,383.24c0,.09-1.43.49-3.66,1.43a39.33,39.33,0,0,0-8.15,4.72,39.88,39.88,0,0,0-3.9,3.43,31.58,31.58,0,0,0-2.74,3.22c-1.43,1.95-2.08,3.32-2.17,3.27a4.36,4.36,0,0,1,.4-1,11.47,11.47,0,0,1,.59-1.1,15.4,15.4,0,0,1,.88-1.4,27,27,0,0,1,2.7-3.35,34,34,0,0,1,12.25-8.15c.57-.23,1.1-.4,1.56-.54a12,12,0,0,1,1.2-.35A4.54,4.54,0,0,1,308.57,383.24Z" style="fill:#fff"></path><path d="M366.54,389.15a1.43,1.43,0,0,1-.47,0H364.7l-5-.07c-4.23-.05-10.07,0-16.52.28s-12.26.9-16.44,1.48c-2.1.29-3.79.54-5,.74l-1.34.21a1.46,1.46,0,0,1-.48,0,2.19,2.19,0,0,1,.45-.14l1.34-.3c1.15-.26,2.84-.57,4.93-.9a155,155,0,0,1,16.48-1.65c6.46-.31,12.32-.26,16.55-.12,2.12.07,3.83.15,5,.23l1.36.11A1.62,1.62,0,0,1,366.54,389.15Z" style="fill:#fff"></path><path d="M365.09,370.67a3.55,3.55,0,0,1-.61,0l-1.76-.07-6.46-.27c-5.46-.22-13-.41-21.34-.34s-15.87.39-21.33.7l-6.45.39-1.76.09a2.5,2.5,0,0,1-.62,0,2.79,2.79,0,0,1,.61-.1l1.75-.2c1.52-.16,3.72-.35,6.45-.55,5.45-.4,13-.78,21.35-.85s15.89.18,21.35.49c2.73.15,4.94.31,6.46.44l1.75.16A2.79,2.79,0,0,1,365.09,370.67Z" style="fill:#fff"></path><path d="M360.69,348.74a1.89,1.89,0,0,1-.57,0l-1.6-.2c-1.4-.2-3.42-.44-5.92-.7a150.69,150.69,0,0,0-19.6-.69,148.59,148.59,0,0,0-19.53,1.95c-2.48.41-4.48.78-5.86,1.07l-1.59.31a2.34,2.34,0,0,1-.56.07,2,2,0,0,1,.54-.18l1.57-.4c1.37-.34,3.36-.77,5.84-1.24a131.23,131.23,0,0,1,39.23-1.25c2.5.3,4.52.6,5.91.86l1.59.3A2.7,2.7,0,0,1,360.69,348.74Z" style="fill:#fff"></path><path d="M328.42,326.45c0,.08-1.52.16-4,.38s-5.83.61-9.53,1.29-7,1.54-9.36,2.21-3.82,1.15-3.85,1.08a4.23,4.23,0,0,1,1-.45c.64-.26,1.59-.59,2.76-1a75.46,75.46,0,0,1,19-3.52c1.23-.06,2.23-.09,2.92-.07A3.82,3.82,0,0,1,328.42,326.45Z" style="fill:#fff"></path><path d="M378.09,328.12c.08.14-2.72,1.78-5.76,4.34s-5.15,5-5.27,4.9a7.18,7.18,0,0,1,1.27-1.71,32.48,32.48,0,0,1,3.67-3.59,32.84,32.84,0,0,1,4.18-3A7.18,7.18,0,0,1,378.09,328.12Z" style="fill:#fff"></path><path d="M388.9,344.56a14.28,14.28,0,0,1-2.79,1.37,14.81,14.81,0,0,1-2.85,1.26,10.83,10.83,0,0,1,5.64-2.63Z" style="fill:#fff"></path><path d="M390.94,353.47a4.47,4.47,0,0,1,0,1.16,11.76,11.76,0,0,1-.15,1.35c-.09.52-.16,1.12-.32,1.77a27.71,27.71,0,0,1-1.4,4.48,31.55,31.55,0,0,1-2.71,5.08,30.87,30.87,0,0,1-3.67,4.43,27.47,27.47,0,0,1-3.62,3,17,17,0,0,1-1.52,1,10.62,10.62,0,0,1-1.19.65,4.81,4.81,0,0,1-1.06.46c0-.09,1.43-.82,3.56-2.38a30.39,30.39,0,0,0,3.49-3,29.94,29.94,0,0,0,6.27-9.35,30.32,30.32,0,0,0,1.49-4.38C390.73,355.1,390.84,353.46,390.94,353.47Z" style="fill:#fff"></path><path d="M327.2,397.7a31.12,31.12,0,0,1-3.12,1.5,74.46,74.46,0,0,0-7.31,4A76,76,0,0,0,310,408a32.34,32.34,0,0,1-2.73,2.13,3.54,3.54,0,0,1,.62-.7c.43-.42,1.06-1,1.88-1.71a54.57,54.57,0,0,1,6.76-4.95,53.89,53.89,0,0,1,7.43-3.86c1-.42,1.8-.73,2.37-.92A3.62,3.62,0,0,1,327.2,397.7Z" style="fill:#fff"></path><path d="M306.64,413a9.52,9.52,0,0,1-2.46.9c-1.56.45-3.74.94-6.17,1.37s-4.63.76-6.22,1-2.56.43-2.59.37a9.07,9.07,0,0,1,2.52-.74c1.58-.33,3.78-.71,6.2-1.15s4.6-.86,6.17-1.21A17.29,17.29,0,0,1,306.64,413Z" style="fill:#fff"></path><path d="M304.91,356.46l1.08,23s19.41,11.22,22.89,15.64,2.7,5.34,2.7,5.34l-27.3-20.24Z" style="opacity:0.30000000000000004"></path><polygon points="421.31 449.18 402.44 433.91 388.29 451.21 410.22 464.25 421.31 449.18" style="fill:#ffbe9d"></polygon><path d="M419.16,445.1l1.12.87s22.34-12.92,26.07-10.31l-29.52,37.26-12-10.33C411.78,459.09,416.66,453.52,419.16,445.1Z" style="fill:#FF725E"></path><path d="M416.83,472.92l-2.89-2.48,29.35-34.81s2-1.09,3.06,0Z" style="fill:#e0e0e0"></path><path d="M424.51,449.78c0,.06-.37-.08-.8-.46a4.56,4.56,0,0,1-1.24-1.85,4.68,4.68,0,0,1-.26-2.22c.09-.57.26-.88.32-.87a7.07,7.07,0,0,0,2,5.4Z" style="fill:#263238"></path><path d="M422.54,451.41a5.14,5.14,0,0,1-2-5.52,26.57,26.57,0,0,0,.62,2.9A22.71,22.71,0,0,0,422.54,451.41Z" style="fill:#263238"></path><path d="M427.69,447.6c0,.13-1.24-.26-2.13-1.46a3.13,3.13,0,0,1-.81-2.45c.14,0,.4,1.07,1.22,2.14S427.75,447.47,427.69,447.6Z" style="fill:#263238"></path><path d="M422.94,444.59a3,3,0,0,1-1.73-.38,9.62,9.62,0,0,1-1.64-1c-.29-.21-.58-.45-.88-.69a4.57,4.57,0,0,1-.47-.44,1,1,0,0,1-.2-.79.72.72,0,0,1,.7-.51,1.62,1.62,0,0,1,.68.14,5.19,5.19,0,0,1,1,.57,5.63,5.63,0,0,1,1.39,1.36,3.12,3.12,0,0,1,.71,1.62c-.08,0-.32-.6-1-1.4a6.29,6.29,0,0,0-1.36-1.19,4.73,4.73,0,0,0-.95-.49c-.32-.15-.67-.14-.68,0s.18.46.49.71l.85.71a12.57,12.57,0,0,0,1.51,1.06C422.29,444.41,423,444.5,422.94,444.59Z" style="fill:#263238"></path><path d="M423,444.24s0,.11,0,.3l0,.16-.1-.14a5.72,5.72,0,0,1-.89-1.8,7.35,7.35,0,0,1-.31-1.54,8.61,8.61,0,0,1,0-.89,1.53,1.53,0,0,1,.1-.52.76.76,0,0,1,.48-.46.69.69,0,0,1,.76.34,2.34,2.34,0,0,1,.22.58,7.09,7.09,0,0,1,.21,1.06,6.23,6.23,0,0,1-.08,1.82,3,3,0,0,1-.62,1.53c-.08,0,.16-.61.26-1.59a7,7,0,0,0,0-1.7,7.22,7.22,0,0,0-.22-1c-.08-.35-.27-.65-.36-.57-.28.05-.22.86-.21,1.35a9,9,0,0,0,.21,1.47,12.46,12.46,0,0,0,.63,1.82h-.14C423,444.31,423,444.23,423,444.24Z" style="fill:#263238"></path><path d="M371.23,405.57c-6,.93,35-10.52,41.54-11.94,14.59-3.14,30.73,5.6,34,14.9,3.8,10.8-9.27,24.21-15.92,27.49-4.12,2-47,18.26-47,18.26l-13.29-40.46Z" style="fill:#263238"></path><polygon points="374.25 460.62 393.45 445.77 379.87 428.01 362.13 446.36 374.25 460.62" style="fill:#ffbe9d"></polygon><path d="M378.71,459.46l-1.1.89s7.43,24.71,4,27.75l-29.48-37.31,12.82-9.3C366.8,449.07,371.1,455.1,378.71,459.46Z" style="fill:#FF725E"></path><path d="M352.17,450.79l3.08-2.24,27.13,36.58s.59,2.23-.73,3Z" style="fill:#e0e0e0"></path><path d="M372.92,463.6c0-.05.17-.35.64-.68a4.74,4.74,0,0,1,4.3-.52c.54.21.81.45.77.51a7,7,0,0,0-5.71.69Z" style="fill:#263238"></path><path d="M371.8,461.3a5.09,5.09,0,0,1,5.83-.69,22.9,22.9,0,0,0-3-.07A26.22,26.22,0,0,0,371.8,461.3Z" style="fill:#263238"></path><path d="M374.31,467.18c-.11-.06.55-1.13,1.92-1.72a3.16,3.16,0,0,1,2.57-.24c0,.15-1.14.15-2.36.7S374.43,467.28,374.31,467.18Z" style="fill:#263238"></path><path d="M378.34,463.26a2.92,2.92,0,0,1,.77-1.6,9.55,9.55,0,0,1,1.35-1.36l.89-.7a3.48,3.48,0,0,1,.53-.35.89.89,0,0,1,.81,0,.71.71,0,0,1,.34.79,1.48,1.48,0,0,1-.3.63,5.87,5.87,0,0,1-.78.86,5.71,5.71,0,0,1-1.65,1,3.15,3.15,0,0,1-1.74.32c0-.08.66-.18,1.59-.65a6.25,6.25,0,0,0,1.48-1.05,5.59,5.59,0,0,0,.7-.81c.21-.27.28-.63.12-.67s-.49.07-.8.31l-.89.67a11.76,11.76,0,0,0-1.38,1.23C378.67,462.67,378.42,463.29,378.34,463.26Z" style="fill:#263238"></path><path d="M378.66,463.43s-.11,0-.29-.09l-.14-.07.16-.07a5.76,5.76,0,0,1,1.95-.46,7.76,7.76,0,0,1,1.57.06l.87.18a1.73,1.73,0,0,1,.49.22.78.78,0,0,1,.33.57.67.67,0,0,1-.5.66,2.5,2.5,0,0,1-.62.09,6.41,6.41,0,0,1-2.83-.54c-.94-.44-1.39-.92-1.35-1s.56.3,1.49.62a7,7,0,0,0,2.67.38c.36,0,.69-.12.63-.22,0-.29-.78-.42-1.26-.52a8.9,8.9,0,0,0-1.48-.13,12.44,12.44,0,0,0-1.92.2l0-.15C378.61,463.33,378.67,463.41,378.66,463.43Z" style="fill:#263238"></path><path d="M290.5,428.59c2.66-3.49,12.11-12.44,22.18-18.19,9.71-5.55,34.14-15,40.29-14.47,13,1.05,65.16,47.22,65.16,47.22L399.8,461.74s-11.26-5.49-29.66-13.63l-16.44-8.2s-2.25,13.81-13.52,18.93" style="fill:#263238"></path><path d="M340.18,458.84l.35-.21,1.06-.58a13.15,13.15,0,0,0,1.67-1.07,20.44,20.44,0,0,0,2.12-1.7,25.28,25.28,0,0,0,4.63-5.92,31.18,31.18,0,0,0,3.54-9.47l0-.2.18.09,9.39,4.65c3.39,1.66,7,3.55,10.93,5.21,7.84,3.49,16.54,7.43,25.81,11.89l-.27,0L418,443v.37c-6.24-5.48-12.82-11.06-19.63-16.66s-13.48-10.89-20.11-15.82c-3.32-2.46-6.62-4.82-9.93-7a84.6,84.6,0,0,0-10-5.9,17.37,17.37,0,0,0-5.23-1.76c-.45,0-.9,0-1.34,0l-1.35.17c-.89.13-1.77.34-2.65.52a102.77,102.77,0,0,0-10,3c-6.37,2.21-12.21,4.57-17.43,6.94-2.61,1.2-5.08,2.37-7.33,3.64s-4.29,2.6-6.17,3.9a103.75,103.75,0,0,0-9.19,7.21c-2.41,2.13-4.18,3.88-5.34,5.11-.59.61-1,1.1-1.29,1.43s-.44.49-.44.49a21.25,21.25,0,0,1,1.65-2c1.14-1.25,2.89-3,5.28-5.19a100.81,100.81,0,0,1,9.17-7.3c1.87-1.31,3.91-2.66,6.17-3.95s4.72-2.47,7.33-3.68c5.23-2.4,11.07-4.78,17.45-7a104.71,104.71,0,0,1,10.05-3c.88-.18,1.77-.4,2.68-.53.46-.05.92-.13,1.38-.17s.95,0,1.42,0a17.81,17.81,0,0,1,5.4,1.8,87.48,87.48,0,0,1,10.09,5.91c3.32,2.21,6.62,4.57,9.95,7,6.65,4.93,13.36,10.26,20.14,15.82s13.39,11.2,19.64,16.69l.2.18-.19.19L400,461.91l-.12.12-.15-.07c-9.26-4.47-17.95-8.43-25.78-11.95-3.95-1.68-7.53-3.58-10.92-5.26l-9.37-4.7.22-.11a28.83,28.83,0,0,1-8.36,15.46,18.91,18.91,0,0,1-2.16,1.68,13.25,13.25,0,0,1-1.69,1l-1.09.55Z" style="fill:#455a64"></path><path d="M415.9,397.25a8.92,8.92,0,0,1-1.38.51L410.7,399c-1.61.51-3.54,1.12-5.65,1.85a59.25,59.25,0,0,0-6.71,2.73,54.42,54.42,0,0,0-6.26,3.66c-1.85,1.24-3.49,2.42-4.86,3.41L384,413a7.75,7.75,0,0,1-1.23.81,8.76,8.76,0,0,1,1.11-1c.73-.61,1.8-1.46,3.14-2.5s3-2.24,4.82-3.51a49.27,49.27,0,0,1,6.29-3.72,54,54,0,0,1,6.79-2.72c2.13-.72,4.06-1.29,5.69-1.76s3-.83,3.87-1.06A7.35,7.35,0,0,1,415.9,397.25Z" style="fill:#455a64"></path><path d="M337.3,425.62a9.38,9.38,0,0,0,1.4,3.4,12.14,12.14,0,0,0,2.82,2.83c1.21.91,2.67,1.76,4.17,2.7,3,1.88,5.72,3.6,7.66,4.87,1,.64,1.76,1.16,2.29,1.53a3.55,3.55,0,0,1,.8.62,4,4,0,0,1-.91-.45c-.56-.32-1.38-.79-2.37-1.39-2-1.18-4.74-2.86-7.75-4.73-1.49-.95-3-1.82-4.18-2.77a12,12,0,0,1-2.84-3,7.26,7.26,0,0,1-1-2.58A2.5,2.5,0,0,1,337.3,425.62Z" style="fill:#455a64"></path><path d="M314.29,313.52a4,4,0,0,1-.69.29l-2,.76-7.42,2.68c-3.11,1.18-7,2.19-10.56,4.78a24.67,24.67,0,0,0-8.59,11,31.83,31.83,0,0,0-1.91,7.1c-.48,2.34-.95,4.61-1.39,6.77-.86,4.32-1.57,8.22-2.08,11.5s-.87,6-1.11,7.81c-.12.88-.21,1.59-.28,2.12a4,4,0,0,1-.13.74,3.87,3.87,0,0,1,0-.75c.05-.54.11-1.25.19-2.13.18-1.86.47-4.54.94-7.84s1.15-7.22,2-11.54c.42-2.16.88-4.44,1.37-6.77a31.62,31.62,0,0,1,1.93-7.21,25,25,0,0,1,8.79-11.23,25.77,25.77,0,0,1,5.57-2.93c1.84-.69,3.57-1.24,5.15-1.8l7.47-2.52,2-.66A3.46,3.46,0,0,1,314.29,313.52Z" style="fill:#263238"></path><g style="opacity:0.30000000000000004"><path d="M362,350.22a11.67,11.67,0,0,0-3.39-4,23.45,23.45,0,0,0-3.48-1.51,5.14,5.14,0,0,1-2.83-2.4l-8.47-1.2c-1.18.83-.94,2.71-.1,3.88s2.09,2,2.83,3.25c.94,1.58.92,3.61,2,5.11a6.82,6.82,0,0,0,4.4,2.41,31.58,31.58,0,0,1,5,1c5.62,2.1,7.78,9.68,13.48,11.55A146.46,146.46,0,0,0,362,350.22Z"></path></g><path d="M357.21,327.94s-5.38-1.87-6.41-1.63-7.26,4.08-7.26,4.08,1.21,3.09,3.56,2S357.21,327.94,357.21,327.94Z" style="fill:#ffbe9d"></path><path d="M353.75,345.21c-.7.71-1.28.61-1.8.09l-1.53-32.68,1.8-.09Z" style="fill:#e0e0e0"></path><path d="M353.75,345.21s0-.23-.06-.67-.06-1.11-.11-1.89c-.09-1.7-.22-4.06-.38-7-.29-5.93-.69-14.06-1.13-23.14l.16.15-1.8.08.15-.16v.13c.71,15.11,1.27,27.95,1.42,32.55v0a1.14,1.14,0,0,0,.75.41,1,1,0,0,0,.6-.16c.29-.18.4-.31.41-.3a1.59,1.59,0,0,1-.38.35,1.12,1.12,0,0,1-.63.19,1.26,1.26,0,0,1-.83-.42h0v0c-.28-4.6-.92-17.44-1.63-32.54v-.29h.15l1.8-.08h.16v.15c.4,9.11.77,17.26,1,23.22.12,2.89.21,5.25.28,6.95,0,.77.05,1.4.06,1.88S353.75,345.21,353.75,345.21Z" style="fill:#263238"></path><path d="M360.36,310.3a9.48,9.48,0,1,1-9.92-9A9.47,9.47,0,0,1,360.36,310.3Z" style="fill:#FF725E"></path><path d="M351.26,310.73a1.51,1.51,0,0,0-.37.06,1.46,1.46,0,0,1,1.16,1.36l.38,8,.73-.15-.37-7.85A1.46,1.46,0,0,0,351.26,310.73Z" style="opacity:0.30000000000000004"></path><path d="M345.46,307a.63.63,0,0,1-.59.66.63.63,0,0,1-.66-.6.63.63,0,0,1,.6-.65A.61.61,0,0,1,345.46,307Z" style="opacity:0.30000000000000004"></path><path d="M355.94,315.75a.63.63,0,0,1-.6.65.62.62,0,0,1-.65-.59.63.63,0,1,1,1.25-.06Z" style="opacity:0.30000000000000004"></path><path d="M344.34,309.66a.32.32,0,0,1-.63,0,.32.32,0,1,1,.63,0Z" style="opacity:0.30000000000000004"></path><path d="M357.29,314.55a.31.31,0,1,1-.62,0,.32.32,0,0,1,.3-.33A.31.31,0,0,1,357.29,314.55Z" style="opacity:0.30000000000000004"></path><path d="M353.16,320a7.49,7.49,0,0,1-.1-.95c-.05-.71-.1-1.54-.17-2.5s-.13-2.33-.21-3.67a5.51,5.51,0,0,0-.1-1,1.28,1.28,0,0,0-.61-.76,1.31,1.31,0,0,0-1.8.54,2.08,2.08,0,0,0-.13,1.18l.06,1.25c0,.81.06,1.59.1,2.34.05,1.43.1,2.72.14,3.84l-.1-.1a11.13,11.13,0,0,0,2.15,0c.5-.07.75-.13.77-.12a2.63,2.63,0,0,1-.76.23,9.35,9.35,0,0,1-2.17.13h-.09v-.09c-.06-1.12-.14-2.41-.22-3.84q-.06-1.12-.12-2.34c0-.41,0-.82-.06-1.25a2.45,2.45,0,0,1,.16-1.34,1.62,1.62,0,0,1,3,.28,5.58,5.58,0,0,1,.1,1.11c0,1.37.09,2.63.13,3.74,0,1,0,1.79.06,2.5S353.17,320,353.16,320Z" style="fill:#263238"></path><path d="M359.57,309.6a12.73,12.73,0,0,0-.79-2.62,8.46,8.46,0,0,0-4.68-4.37,7.68,7.68,0,0,0-3.51-.63,10,10,0,0,0-2.91.51,7.17,7.17,0,0,0-2.36,1.34s0-.06.11-.16a3.05,3.05,0,0,1,.4-.38,6.2,6.2,0,0,1,1.78-1,9.75,9.75,0,0,1,3-.59,7.86,7.86,0,0,1,3.65.63,8.4,8.4,0,0,1,4.76,4.57,7,7,0,0,1,.55,2A3.27,3.27,0,0,1,359.57,309.6Z" style="fill:#263238"></path><path d="M359.62,310.86a4.21,4.21,0,0,1,0,1.63,8.8,8.8,0,0,1-1.43,3.65,8.69,8.69,0,0,1-2.9,2.64,4.15,4.15,0,0,1-1.5.6c0-.05.56-.26,1.39-.79a9.32,9.32,0,0,0,4.22-6.14C359.58,311.48,359.57,310.86,359.62,310.86Z" style="fill:#263238"></path><path d="M350.07,312.35a13.18,13.18,0,0,1,.44,3.69,13.35,13.35,0,0,1-.09,3.72,27.06,27.06,0,0,1-.35-7.41Z" style="fill:#fff"></path><path d="M347.19,318.74a4.56,4.56,0,0,1-1.92-1,8.86,8.86,0,0,1-3-9.59,4.45,4.45,0,0,1,1-1.94c.08,0-.33.77-.64,2a9.25,9.25,0,0,0,2.87,9.21C346.48,318.29,347.23,318.66,347.19,318.74Z" style="fill:#fff"></path><path d="M344.53,304.65c.11.09.07.34-.1.56s-.4.33-.51.24-.07-.34.1-.56S344.41,304.57,344.53,304.65Z" style="fill:#fff"></path><path d="M342.09,314.29l13.69-11.67a14,14,0,0,1,1.7,1.31L343,316A9.6,9.6,0,0,1,342.09,314.29Z" style="fill:#fff;opacity:0.1"></path><polygon points="344.23 317.46 358.77 305.47 358.21 304.71 343.74 316.98 344.23 317.46" style="fill:#fff;opacity:0.1"></polygon><polyline points="350.07 316.65 352.18 314.79 352.22 315.67 350.11 317.56 350.07 316.77" style="fill:#fff;opacity:0.1"></polyline><path d="M378.21,346.49c0-.2-10.5-8.66-10.5-8.66s-7.31-8.43-7.84-8.87a9.83,9.83,0,0,0-3.69-1.29s-10.12.52-12.17,2.33a4.2,4.2,0,0,0-1.33,2h0a2.44,2.44,0,0,0,1.64,3l.29.1s-2.2.21-2.21,3.19a2.88,2.88,0,0,0,1.88,2.88,3.71,3.71,0,0,0,1.21,3.73,2.82,2.82,0,0,0,1.45.75h0s3.64,5,5.14,5.88,8.37,1.77,8.37,1.77l9.79,11.41C376.54,362,378.21,346.88,378.21,346.49Z" style="fill:#ffbe9d"></path><path d="M353.57,334.23a25.19,25.19,0,0,1-4.51.58,24.83,24.83,0,0,1-4.53.31,16,16,0,0,1,4.48-.82A16.46,16.46,0,0,1,353.57,334.23Z" style="fill:#eb996e"></path><path d="M353.57,340.15a28.65,28.65,0,0,1-4.63.64,25.33,25.33,0,0,1-4.66.35,18.27,18.27,0,0,1,4.61-.87A16.75,16.75,0,0,1,353.57,340.15Z" style="fill:#eb996e"></path><path d="M353.57,345a15.9,15.9,0,0,1-3.43.53,11.47,11.47,0,0,1-3.47.05,11.62,11.62,0,0,1,3.42-.56A9.45,9.45,0,0,1,353.57,345Z" style="fill:#eb996e"></path><path d="M354.56,327.78a10,10,0,0,1-2.08.4l-5,.86c-.49.08-1,.15-1.42.25a6,6,0,0,0-1.26.34,3.4,3.4,0,0,0-1.61,1.39,5.62,5.62,0,0,0-.52,2s-.1-.2-.13-.57a3.28,3.28,0,0,1,.32-1.58,3.72,3.72,0,0,1,1.74-1.64,5,5,0,0,1,1.35-.4c.48-.12.95-.2,1.45-.28A31.32,31.32,0,0,1,354.56,327.78Z" style="fill:#eb996e"></path></g></svg>