<svg xmlns="http://www.w3.org/2000/svg" xmlns:xlink="http://www.w3.org/1999/xlink" version="1.1" style="" xml:space="preserve" width="56" height="56"><rect id="backgroundrect" width="100%" height="100%" x="0" y="0" fill="none" stroke="none" class="" style=""/><g class="currentLayer" style=""><title>Layer 1</title><g id="svg_1" class="" fill="#eb1aeb" fill-opacity="1"><g id="svg_2" fill="#eb1aeb" fill-opacity="1"><path d="M42.7,17.675675690174103 h-1.3 c-0.2,0 -0.3000000000000001,-0.1 -0.3000000000000001,-0.3000000000000001 c0,-0.6000000000000002 -0.4,-1 -1,-1 s-1,0.4 -1,1 c0,1.2 0.9,2.1 2,2.3 v0 c0,0.6000000000000002 0.4,1 1,1 s1,-0.4 1,-1 v0 c1.1,-0.2 2,-1.1 2,-2.3 v-1.3 c0,-1.3 -1,-2.3 -2.3,-2.3 H42 h-0.7000000000000002 c-0.2,0 -0.3000000000000001,-0.1 -0.3000000000000001,-0.3000000000000001 v-1.3 c0,-0.2 0.1,-0.3000000000000001 0.3000000000000001,-0.3000000000000001 h1.3 c0.2,0 0.3000000000000001,0.1 0.3000000000000001,0.3000000000000001 c0,0.6000000000000002 0.4,1 1,1 s1,-0.4 1,-1 c0,-1.2 -0.9,-2.1 -2,-2.3 v0 c0,-0.6000000000000002 -0.4,-1 -1,-1 s-1,0.4 -1,1 v0 c-1.1,0.2 -2,1.1 -2,2.3 v1.3 c0,1.3 1,2.3 2.3,2.3 H42 h0.7000000000000002 c0.2,0 0.3000000000000001,0.1 0.3000000000000001,0.3000000000000001 v1.3 C43,17.5756756901741 42.9,17.675675690174103 42.7,17.675675690174103 z" id="svg_3" fill="#eb1aeb" fill-opacity="1"/><path d="M42,24.675675690174103 c5.5,0 10,-4.5 10,-10 S47.5,4.675675690174103 42,4.675675690174103 s-10,4.5 -10,10 S36.5,24.675675690174103 42,24.675675690174103 zM42,6.675675690174103 c4.4,0 8,3.6 8,8 s-3.6,8 -8,8 s-8,-3.6 -8,-8 S37.6,6.675675690174103 42,6.675675690174103 z" id="svg_4" fill="#eb1aeb" fill-opacity="1"/><path d="M55,27.675675690174103 H29 V1.6756756901741028 c0,-0.6000000000000002 -0.4,-1 -1,-1 s-1,0.4 -1,1 v26 H1 c-0.6000000000000002,0 -1,0.4 -1,1 s0.4,1 1,1 h26 v26 c0,0.6000000000000002 0.4,1 1,1 s1,-0.4 1,-1 V29.675675690174103 h26 c0.6000000000000002,0 1,-0.4 1,-1 S55.6,27.675675690174103 55,27.675675690174103 z" id="svg_5" fill="#eb1aeb" fill-opacity="1"/><path d="M14,32.6756756901741 c-5.5,0 -10,4.5 -10,10 s4.5,10 10,10 s10,-4.5 10,-10 S19.5,32.6756756901741 14,32.6756756901741 zM14,50.6756756901741 c-4.4,0 -8,-3.6 -8,-8 s3.6,-8 8,-8 s8,3.6 8,8 S18.4,50.6756756901741 14,50.6756756901741 z" id="svg_6" fill="#eb1aeb" fill-opacity="1"/><path d="M15.7,41.6756756901741 c-0.2,-0.3000000000000001 -0.4,-0.5 -0.7000000000000002,-0.7000000000000002 V37.6756756901741 c0,-0.6000000000000002 -0.4,-1 -1,-1 s-1,0.4 -1,1 v3.3 c-0.6000000000000002,0.3000000000000001 -1,1 -1,1.7000000000000002 c0,1.1 0.9,2 2,2 c0.7000000000000002,0 1.4,-0.4 1.7000000000000002,-1 H19 c0.6000000000000002,0 1,-0.4 1,-1 s-0.4,-1 -1,-1 H15.7 z" id="svg_7" fill="#eb1aeb" fill-opacity="1"/><path d="M8,24.675675690174103 h12 c0.6000000000000002,0 1,-0.4 1,-1 v-4 c0,-2.7 -1.5,-5 -3.8,-6.2 c1.1,-0.9 1.8,-2.3 1.8,-3.8 c0,-2.8 -2.2,-5 -5,-5 s-5,2.2 -5,5 c0,1.5 0.7000000000000002,2.9 1.8,3.8 C8.5,14.675675690174103 7,16.975675690174103 7,19.675675690174103 v4 C7,24.275675690174104 7.4,24.675675690174103 8,24.675675690174103 zM11,9.675675690174103 c0,-1.7000000000000002 1.3,-3 3,-3 s3,1.3 3,3 s-1.3,3 -3,3 S11,11.375675690174102 11,9.675675690174103 zM9,19.675675690174103 c0,-2.8 2.2,-5 5,-5 s5,2.2 5,5 v3 H9 V19.675675690174103 z" id="svg_8" fill="#eb1aeb" fill-opacity="1"/><path d="M42,31.675675690174103 c-5.5,0 -10,4.5 -10,10 c0,4.1 2.5,7.6 6,9.2 V54.6756756901741 c0,0.6000000000000002 0.4,1 1,1 h1 c0,0.6000000000000002 0.4,1 1,1 h2 c0.6000000000000002,0 1,-0.4 1,-1 h1 c0.6000000000000002,0 1,-0.4 1,-1 v-3.8 c3.5,-1.5 6,-5.1 6,-9.2 C52,36.1756756901741 47.5,31.675675690174103 42,31.675675690174103 zM38.5,42.6756756901741 c-0.3000000000000001,0 -0.5,-0.2 -0.5,-0.5 s0.2,-0.5 0.5,-0.5 s0.5,0.2 0.5,0.5 S38.8,42.6756756901741 38.5,42.6756756901741 zM44,51.6756756901741 v2 h-4 v-2 H44 zM45,49.0756756901741 v-4.5 c0.2,0 0.3000000000000001,0.1 0.5,0.1 c1.4,0 2.5,-1.1 2.5,-2.5 S46.9,39.6756756901741 45.5,39.6756756901741 S43,40.775675690174104 43,42.1756756901741 c0,0.1 0,0.2 0,0.3000000000000001 c0,0.1 0,0.1 0,0.2 v6.9 c-0.3000000000000001,0 -0.7000000000000002,0.1 -1,0.1 s-0.7000000000000002,0 -1,-0.1 V42.6756756901741 c0,-0.1 0,-0.1 0,-0.2 c0,-0.1 0,-0.2 0,-0.3000000000000001 c0,-1.4 -1.1,-2.5 -2.5,-2.5 S36,40.775675690174104 36,42.1756756901741 s1.1,2.5 2.5,2.5 c0.2,0 0.3000000000000001,0 0.5,-0.1 v4.5 c-2.9,-1.2 -5,-4.1 -5,-7.4 c0,-4.4 3.6,-8 8,-8 s8,3.6 8,8 C50,44.9756756901741 47.9,47.875675690174106 45,49.0756756901741 zM45,42.1756756901741 c0,-0.3000000000000001 0.2,-0.5 0.5,-0.5 s0.5,0.2 0.5,0.5 S45.8,42.6756756901741 45.5,42.6756756901741 S45,42.4756756901741 45,42.1756756901741 z" id="svg_9" fill="#eb1aeb" fill-opacity="1"/></g></g></g></svg>